{"title":"Escape Plan 2013 NEW SOURCE CAM XViD AC3 ACAB","uid":9347325,"size":1127341130,"categoryP":"video","categoryS":"movies","magnet":"?xt=urn:btih:8c5bc140bdcbe3e7d10685e0a272a84aa77129d3&amp;dn=Escape+Plan+2013+NEW+SOURCE+CAM+XViD+AC3+ACAB&amp;tr=udp%3A%2F%2Ftracker.openbittorrent.com%3A80&amp;tr=udp%3A%2F%2Fopen.demonii.com%3A1337&amp;tr=udp%3A%2F%2Ftracker.coppersurfer.tk%3A6969&amp;tr=udp%3A%2F%2Fexodus.desync.com%3A6969","seeders":0,"leechers":0,"uploader":"7","files":2,"time":1387060152,"description":"Released\t2013\nGenre\t, Action, Mystery, Thriller\n\nActors\tSylvester Stallone, Arnold Schwarzenegger, 50 Cent\n\nPlot\tWhen a structural-security authority finds himself set up and incarcerated in the world's most secret and secure prison, he has to use his skills to escape with help from the inside.\n\nIMDB link\thttp://www.imdb.com/title/tt1211956/\n\nFormat                                   : AVI\nFormat/Info                              : Audio Video Interleave\nFile size                                : 1.04 GiB\nDuration                                 : 1h 47mn\nOverall bit rate                         : 1 381 Kbps\nWriting library                          : VirtualDub build 30091/release\n\nVideo\nID                                       : 0\nFormat                                   : MPEG-4 Visual\nFormat profile                           : Advanced Simple@L5\nFormat settings, BVOP                    : 2\nFormat settings, QPel                    : No\nFormat settings, GMC                     : No warppoints\nFormat settings, Matrix                  : Default (H.263)\nMuxing mode                              : Packed bitstream\nCodec ID                                 : XVID\nCodec ID/Hint                            : XviD\nDuration                                 : 1h 47mn\nBit rate                                 : 1 243 Kbps\nWidth                                    : 640 pixels\nHeight                                   : 272 pixels\nDisplay aspect ratio                     : 2.35:1\nFrame rate                               : 23.976 fps\nColor space                              : YUV\nChroma subsampling                       : 4:2:0\nBit depth                                : 8 bits\nScan type                                : Progressive\nCompression mode                         : Lossy\nBits/(Pixel*Frame)                       : 0.298\nStream size                              : 958 MiB (90%)\nWriting library                          : XviD 1.2.1 (UTC 2008-12-04)\n\nAudio\nID                                       : 1\nFormat                                   : AC-3\nFormat/Info                              : Audio Coding 3\nMode extension                           : CM (complete main)\nFormat settings, Endianness              : Big\nCodec ID                                 : 2000\nDuration                                 : 1h 47mn\nBit rate mode                            : Constant\nBit rate                                 : 128 Kbps\nChannel count                            : 2 channels\nChannel positions                        : Front: L R\nSampling rate                            : 48.0 KHz\nBit depth                                : 16 bits\nCompression mode                         : Lossy\nStream size                              : 98.6 MiB (9%)\n &lt;a href=&quot;\nhttp://s2.postimg.org/iib4i4gyh/bdfghd.png&quot; rel=&quot;nofollow&quot; target=&quot;_NEW&quot;&gt;\nhttp://s2.postimg.org/iib4i4gyh/bdfghd.png&lt;/a&gt;\n &lt;a href=&quot;\nhttp://s2.postimg.org/u8p1zi9qx/bvbcbcv.png&quot; rel=&quot;nofollow&quot; target=&quot;_NEW&quot;&gt;\nhttp://s2.postimg.org/u8p1zi9qx/bvbcbcv.png&lt;/a&gt;\n &lt;a href=&quot;\nhttp://s2.postimg.org/5gpfs9sk9/fgdg.png&quot; rel=&quot;nofollow&quot; target=&quot;_NEW&quot;&gt;\nhttp://s2.postimg.org/5gpfs9sk9/fgdg.png&lt;/a&gt;\n &lt;a href=&quot;\nhttp://s2.postimg.org/n8126q7yx/GFDGDF.png&quot; rel=&quot;nofollow&quot; target=&quot;_NEW&quot;&gt;\nhttp://s2.postimg.org/n8126q7yx/GFDGDF.png&lt;/a&gt;\n &lt;a href=&quot;\nhttp://s2.postimg.org/3rgck7cux/vbvc.png&quot; rel=&quot;nofollow&quot; target=&quot;_NEW&quot;&gt;\nhttp://s2.postimg.org/3rgck7cux/vbvc.png&lt;/a&gt;","torrent":{"xt":"urn:btih:8c5bc140bdcbe3e7d10685e0a272a84aa77129d3","amp;dn":"Escape+Plan+2013+NEW+SOURCE+CAM+XViD+AC3+ACAB","amp;tr":["udp%3A%2F%2Ftracker.openbittorrent.com%3A80","udp%3A%2F%2Fopen.demonii.com%3A1337","udp%3A%2F%2Ftracker.coppersurfer.tk%3A6969","udp%3A%2F%2Fexodus.desync.com%3A6969"],"infoHash":"8c5bc140bdcbe3e7d10685e0a272a84aa77129d3","infoHashBuffer":{"type":"Buffer","data":[140,91,193,64,189,203,227,231,209,6,133,224,162,114,168,74,167,113,41,211]},"announce":[],"urlList":[]}}